<svg xmlns="http://www.w3.org/2000/svg" version="1.1" xmlns:xlink="http://www.w3.org/1999/xlink" width="500" height="500"><svg xmlns="http://www.w3.org/2000/svg" version="1.1" xmlns:xlink="http://www.w3.org/1999/xlink" width="500" height="500"><svg xmlns="http://www.w3.org/2000/svg" xmlns:xlink="http://www.w3.org/1999/xlink" width="500" zoomAndPan="magnify" viewBox="0 0 375 374.999991" height="500" preserveAspectRatio="xMidYMid meet" version="1.0"><defs><clipPath id="ac0ed651bd"><path d="M 145.332031 73.058594 L 257.964844 73.058594 L 257.964844 215.519531 L 145.332031 215.519531 Z M 145.332031 73.058594 " clip-rule="nonzero"></path></clipPath><clipPath id="7f7e77b108"><path d="M 0.332031 0.0585938 L 112.964844 0.0585938 L 112.964844 142.519531 L 0.332031 142.519531 Z M 0.332031 0.0585938 " clip-rule="nonzero"></path></clipPath><clipPath id="d521cdf4f5"><rect x="0" width="113" y="0" height="143"></rect></clipPath><clipPath id="2a4c6d940e"><path d="M 195 2 L 208 2 L 208 282.121094 L 195 282.121094 Z M 195 2 " clip-rule="nonzero"></path></clipPath><clipPath id="f22bb10123"><path d="M 1.035156 102.378906 L 113.667969 102.378906 L 113.667969 184.792969 L 1.035156 184.792969 Z M 1.035156 102.378906 " clip-rule="nonzero"></path></clipPath><clipPath id="ac464bed4a"><path d="M 0.0351562 0.378906 L 112.667969 0.378906 L 112.667969 82.792969 L 0.0351562 82.792969 Z M 0.0351562 0.378906 " clip-rule="nonzero"></path></clipPath><clipPath id="ca453af196"><rect x="0" width="113" y="0" height="83"></rect></clipPath><clipPath id="e5eb595fed"><rect x="0" width="259" y="0" height="283"></rect></clipPath></defs><g transform="matrix(1, 0, 0, 1, 58, 45)"><g clip-path="url(#e5eb595fed)"><g clip-path="url(#ac0ed651bd)"><g transform="matrix(1, 0, 0, 1, 145, 73)"><g clip-path="url(#d521cdf4f5)"><g clip-path="url(#7f7e77b108)"><path fill="#c05621" d="M 0.332031 0.0585938 L 112.964844 0.0585938 L 112.964844 142.605469 L 0.332031 142.605469 Z M 0.332031 0.0585938 " fill-opacity="1" fill-rule="nonzero"></path></g></g></g></g><g clip-path="url(#2a4c6d940e)"><path stroke-linecap="butt" transform="matrix(0, -3.097846, 3.097846, 0, 195.430789, 275.828386)" fill="none" stroke-linejoin="miter" d="M 0.0000842948 1.999522 L 86.091901 1.999522 " stroke="#c05621" stroke-width="4" stroke-opacity="1" stroke-miterlimit="4"></path></g><path stroke-linecap="butt" transform="matrix(0, -3.097846, 3.097846, 0, 51.149636, 238.602579)" fill="none" stroke-linejoin="miter" d="M 0.000328124 1.99949 L 61.113854 1.99949 " stroke="#c05621" stroke-width="4" stroke-opacity="1" stroke-miterlimit="4"></path><g clip-path="url(#f22bb10123)"><g transform="matrix(1, 0, 0, 1, 1, 102)"><g clip-path="url(#ca453af196)"><g clip-path="url(#ac464bed4a)"><path fill="#c05621" d="M 0.0351562 0.378906 L 112.710938 0.378906 L 112.710938 82.792969 L 0.0351562 82.792969 Z M 0.0351562 0.378906 " fill-opacity="1" fill-rule="nonzero"></path></g></g></g></g></g></g></svg></svg><style>@media (prefers-color-scheme: light) { :root { filter: none; } }
@media (prefers-color-scheme: dark) { :root { filter: none; } }
</style></svg>